# generated from PmQm by Jehee Lee
:FULLY-SPECIFIED
:DEGREES
307
root 170.0818401 36.429 -32.29349359 5.774993101 7.043197902 2.032533014
RightUpLeg -24.46191536 4.467863069 -7.756895294
RightLeg 71.38527412 1.521368896 -9.546292257
RightFoot -9.859414259 15.07737501 -7.154020736
RightToes -4.65663e-010 -1.59028e-015 9.93923e-017
Spine 42.0899 -0.0872231 -2.6484
Spine1 6.94183 -0.554346 -3.40369
HEad -50.8235 1.91643 6.20582
LeftShoulder1 9.93923e-017 0 1.22299e-017
LeftArm 25.6008 -12.6517 -80.8054
LeftForeArm -33.6143 -22.4551 9.22674
LeftHand 0.727332 5.14425 -0.315115
RightShoulder 1.98785e-016 -4.96962e-017 1.55301e-017
RightArm 35.0401 -25.5234 84.279
RightForeArm -41.2192 17.849 -2.87423
RightHand 1.61848 -12.391 -8.81594
LeftUpLeg -34.89531154 -11.29881963 6.791866948
LeftLeg 51.63362659 0 0
LeftFoot -20.79892312 10.80535436 -7.006550959
LeftToes 3.34876e-009 -9.68256e-011 -6.12847e-011
308
root 170.2612966 37.2523 -30.98719854 4.449267861 6.852170515 0.9096638954
RightUpLeg -28.43564242 3.297496341 -5.415911259
RightLeg 67.89770148 2.018683531 -8.072585329
RightFoot -11.04788008 12.66072909 -7.020831638
RightToes -4.65663e-010 -1.59028e-015 9.93923e-017
Spine 39.6014 -0.747794 -3.28734
Spine1 7.24539 -1.87209 -1.32992
HEad -49.031 4.40005 5.23861
LeftShoulder1 9.93923e-017 0 1.22299e-017
LeftArm 31.3487 -14.3926 -79.0185
LeftForeArm -41.015 -24.9243 15.8229
LeftHand 0.742463 5.23221 -0.490903
RightShoulder 1.98785e-016 -4.96962e-017 1.55301e-017
RightArm 36.4292 -31.9232 84.808
RightForeArm -42.0431 18.1036 -3.30048
RightHand 1.45818 -11.7895 -7.65432
LeftUpLeg -28.64552783 -12.56324954 6.971912527
LeftLeg 46.43900117 0 0
LeftFoot -20.44185157 11.68432309 -7.861847804
LeftToes 3.34876e-009 -9.68256e-011 -6.12847e-011
309
root 170.440005 37.9178 -29.64896384 3.350655119 6.421237243 -0.1207631682
RightUpLeg -31.79512447 2.256238277 -3.432133829
RightLeg 62.60653741 3.022500195 -5.452171194
RightFoot -10.64439348 10.43648067 -6.023586588
RightToes -4.66148e-010 0.002451 -2.27119e-008
Spine 37.2157 -1.54597 -3.88186
Spine1 7.16197 -3.17286 0.312699
HEad -46.8429 6.49232 4.76769
LeftShoulder1 9.93923e-017 0 1.22299e-017
LeftArm 28.6791 -16.1442 -76.6837
LeftForeArm -38.5359 -27.6832 18.3858
LeftHand 0.726345 5.15204 -0.198481
RightShoulder 1.98785e-016 -4.96962e-017 1.55301e-017
RightArm 37.737 -38.3262 84.5785
RightForeArm -42.5641 18.4385 -4.13956
RightHand 1.26491 -11.0948 -5.74634
LeftUpLeg -22.89735134 -13.36245275 6.941910638
LeftLeg 41.77661511 0 0
LeftFoot -19.73558152 12.02702591 -9.249598408
LeftToes 3.34876e-009 -9.68256e-011 -6.12847e-011
310
root 170.6163453 38.3851 -28.29330773 2.482917576 6.432621478 -0.6083578373
RightUpLeg -34.21206886 0.9173809792 -1.799951409
RightLeg 55.40453148 4.713938945 -2.40655478
RightFoot -9.445363702 8.329115764 -4.91411546
RightToes -5.39556e-010 -0.0302289 2.80113e-007
Spine 34.889 -2.36211 -4.56542
Spine1 6.87516 -4.43651 1.83144
HEad -44.4815 8.29605 4.41846
LeftShoulder1 9.93923e-017 0 1.22299e-017
LeftArm 24.425 -17.7061 -74.5676
LeftForeArm -34.7041 -30.529 19.7097
LeftHand 0.692089 5.00662 0.527282
RightShoulder 1.98785e-016 -4.96962e-017 1.55301e-017
RightArm 39.0923 -44.4742 83.4662
RightForeArm -43.1033 18.7695 -5.14048
RightHand 1.1809 -10.8939 -4.40905
LeftUpLeg -17.89056489 -14.79683904 6.5805296
LeftLeg 38.11740741 0 0
LeftFoot -18.80417004 12.82781229 -10.92243539
LeftToes 3.34876e-009 -9.68256e-011 -6.12847e-011
311
root 170.7898094 38.6582 -26.89029356 1.948948056 6.594551488 -1.082078959
RightUpLeg -35.51731188 -1.113280863 -0.2652868801
RightLeg 46.21915392 7.610941926 0.7288508677
RightFoot -7.736428089 6.23563808 -3.474356286
RightToes -4.70706e-010 -0.007897680006 7.31829e-008
Spine 32.2869 -3.19739 -5.37652
Spine1 6.6728 -5.74261 3.55808
HEad -42.1606 9.7891 4.14105
LeftShoulder1 9.93923e-017 0 1.22299e-017
LeftArm 21.006 -18.9871 -72.9331
LeftForeArm -32.9599 -33.1281 20.9415
LeftHand 0.682292 5.0123 1.09759
RightShoulder 1.98785e-016 -4.96962e-017 1.55301e-017
RightArm 39.6734 -50.0655 81.2415
RightForeArm -42.6849 18.8914 -5.72047
RightHand 1.19947 -11.0808 -4.2494
LeftUpLeg -13.85480224 -16.54789578 6.082439095
LeftLeg 35.76408242 0 0
LeftFoot -18.24670637 13.77682174 -12.24424022
LeftToes 3.34876e-009 -9.68256e-011 -6.12847e-011
312
root 170.9219134 38.7811 -25.40069045 1.712412071 7.006220495 -1.439317217
RightUpLeg -35.64687549 -3.567157303 1.361086333
RightLeg 35.38297619 11.50725314 2.850274749
RightFoot -5.570379664 4.180221121 -0.9540991215
RightToes -4.65717e-010 0.000817001 -7.57064e-009
Spine 29.3372 -3.98709 -6.13795
Spine1 6.72458 -6.99289 5.41418
HEad -39.8039 10.6445 4.09984
LeftShoulder1 9.93923e-017 0 1.22299e-017
LeftArm 18.562 -20.067 -71.9654
LeftForeArm -32.6214 -35.0261 21.8462
LeftHand 0.688992 5.09685 1.43391
RightShoulder 1.98785e-016 -4.96962e-017 1.55301e-017
RightArm 38.6595 -55.0451 77.9048
RightForeArm -40.6377 18.7119 -5.58516
RightHand 1.22116 -11.1399 -4.58021
LeftUpLeg -10.18558051 -14.43411315 6.386944311
LeftLeg 33.85105523 0 0
LeftFoot -17.48677424 10.94986872 -12.50276297
LeftToes 3.34876e-009 -9.68256e-011 -6.12847e-011
313
root 170.8403534 38.761 -23.82081524 1.290380669 7.356483782 -1.723452021
RightUpLeg -34.69594133 -5.635784373 2.869397889
RightLeg 24.37212944 14.09916077 2.660481833
RightFoot -3.963780963 2.160155835 1.981537623
RightToes -4.65663e-010 -1.59028e-015 9.93923e-017
Spine 26.5639 -4.55512 -6.82768
Spine1 6.92657 -7.97795 6.999
HEad -37.4286 10.628 4.26208
LeftShoulder1 9.93923e-017 0 1.22299e-017
LeftArm 17.3289 -21.0057 -71.8216
LeftForeArm -32.4975 -35.699 22.1798
LeftHand 0.669231 5.05223 2.12048
RightShoulder 1.98785e-016 -4.96962e-017 1.55301e-017
RightArm 36.0108 -59.2849 74.0598
RightForeArm -37.3099 18.2007 -4.64622
RightHand 1.22752 -11.1105 -4.82554
LeftUpLeg -6.42127813 -9.280961609 8.050501491
LeftLeg 32.24473373 0 0
LeftFoot -16.1786031 4.81104859 -13.15070814
LeftToes 3.34876e-009 -9.68256e-011 -6.12847e-011
314
root 170.6748098 38.6107 -22.16406133 0.4432134803 7.588345854 -1.842235442
RightUpLeg -33.21780936 -2.170255024 1.06554378
RightLeg 16.5013455 8.096826875 2.079098632
RightFoot -4.303741292 0.5463116638 3.099981318
RightToes -4.65663e-010 -1.59028e-015 9.93923e-017
Spine 24.475 -4.8901 -7.52332
Spine1 7.11972 -8.72005 8.23474
HEad -35.455 9.98839 4.34991
LeftShoulder1 9.93923e-017 0 1.22299e-017
LeftArm 16.9842 -21.5679 -72.3064
LeftForeArm -32.2674 -35.3967 22.0464
LeftHand 0.625325 4.92011 3.24499
RightShoulder 1.98785e-016 -4.96962e-017 1.55301e-017
RightArm 31.8366 -62.2137 70.7246
RightForeArm -32.7329 17.1668 -2.67359
RightHand 1.27786 -11.3776 -5.13335
LeftUpLeg -2.543925136 -5.277573717 10.07953979
LeftLeg 31.44161103 0 0
LeftFoot -14.21872587 -0.562114489 -14.62180387
LeftToes 3.34876e-009 -9.68256e-011 -6.12847e-011
315
root 170.4933777 38.3996 -20.43405716 -0.271047136 7.913243492 -1.942697901
RightUpLeg -32.20348677 0.4968947235 0.06318453303
RightLeg 13.9724804 2.175620802 1.068779762
RightFoot -5.939901929 -0.3803568135 2.263195768
RightToes -4.65663e-010 -1.59028e-015 9.93923e-017
Spine 22.6855 -5.27061 -7.91413
Spine1 7.3436 -9.44113 9.40898
HEad -34.3014 9.1405 4.05365
LeftShoulder1 9.93923e-017 0 1.22299e-017
LeftArm 16.7331 -21.1244 -73.1339
LeftForeArm -32.332 -35.0383 21.8704
LeftHand 0.607522 4.90296 4.00253
RightShoulder 1.98785e-016 -4.96962e-017 1.55301e-017
RightArm 25.9337 -63.3726 68.7701
RightForeArm -26.6408 15.321 0.192758
RightHand 1.36844 -11.8633 -5.5921
LeftUpLeg 0.6746052451 -4.183204443 11.77783654
LeftLeg 31.56646924 0 0
LeftFoot -11.76061999 -2.952245875 -16.69685621
LeftToes 3.34876e-009 -9.68256e-011 -6.12847e-011
316
root 170.3017552 38.1622 -18.6021775 -0.1928484755 8.299429109 -2.421559204
RightUpLeg -32.01973375 0.9224176145 0.7993735684
RightLeg 15.75681062 0 0
RightFoot -5.968891506 -0.6859503377 1.335501242
RightToes -4.65663e-010 -1.59028e-015 9.93923e-017
Spine 20.36 -5.84294 -7.26506
Spine1 7.60528 -10.072 10.4817
HEad -33.7393 8.11163 3.27128
LeftShoulder1 9.93923e-017 0 1.22299e-017
LeftArm 16.2627 -18.9995 -74.4709
LeftForeArm -32.6064 -35.0432 21.8563
LeftHand 0.611558 4.93896 4.12161
RightShoulder 1.98785e-016 -4.96962e-017 1.55301e-017
RightArm 18.7823 -63.1356 68.46
RightForeArm -20.1789 12.8233 3.0405
RightHand 1.43459 -12.1835 -5.97995
LeftUpLeg 2.412461718 -6.136722883 12.92394652
LeftLeg 32.5443273 0 0
LeftFoot -9.29145483 -1.299955971 -20.46216156
LeftToes 3.34876e-009 -9.68256e-011 -6.12847e-011
